<?xml version="1.0" encoding="UTF-8"?>
<!-- Medicare Price Guide — full horizontal lockup. Transparent bg. -->
<svg xmlns="http://www.w3.org/2000/svg" viewBox="0 0 600 160" width="600" height="160">
  <!-- ── ICON: heart-tree on the left ── -->
  <g transform="translate(15 12)">
    <g fill="#5d7a3e">
      <ellipse cx="22" cy="38" rx="14" ry="20" transform="rotate(-22 22 38)"/>
      <ellipse cx="88" cy="38" rx="14" ry="20" transform="rotate(22 88 38)"/>
      <ellipse cx="55" cy="14" rx="18" ry="14"/>
      <circle cx="35" cy="22" r="13"/>
      <circle cx="75" cy="22" r="13"/>
      <ellipse cx="30" cy="50" rx="13" ry="14" transform="rotate(-12 30 50)"/>
      <ellipse cx="80" cy="50" rx="13" ry="14" transform="rotate(12 80 50)"/>
      <circle cx="55" cy="32" r="22"/>
      <circle cx="42" cy="42" r="14"/>
      <circle cx="68" cy="42" r="14"/>
      <circle cx="55" cy="50" r="16"/>
    </g>
    <g fill="#7a8e58" opacity="0.55">
      <ellipse cx="42" cy="20" rx="6" ry="4" transform="rotate(-30 42 20)"/>
      <ellipse cx="68" cy="20" rx="6" ry="4" transform="rotate(30 68 20)"/>
      <ellipse cx="55" cy="38" rx="7" ry="5"/>
      <ellipse cx="28" cy="40" rx="5" ry="3" transform="rotate(-30 28 40)"/>
      <ellipse cx="82" cy="40" rx="5" ry="3" transform="rotate(30 82 40)"/>
    </g>
    <path d="M55 110 L33 78 A11 11 0 1 1 55 70 A11 11 0 1 1 77 78 Z" fill="#3d2b1f"/>
    <g stroke="#3d2b1f" stroke-width="2.5" stroke-linecap="round" fill="none">
      <line x1="48" y1="108" x2="42" y2="122"/>
      <line x1="55" y1="110" x2="55" y2="125"/>
      <line x1="62" y1="108" x2="68" y2="122"/>
    </g>
    <path d="M55 84 L46 76 A4 4 0 1 1 55 73 A4 4 0 1 1 64 76 Z" fill="#5d4a2e"/>
  </g>

  <!-- ── HOUSE: roof + chimney + window ── -->
  <g transform="translate(160 14)" fill="none" stroke="#3d2b1f" stroke-width="3" stroke-linejoin="round" stroke-linecap="round">
    <!-- Roof line + chimney -->
    <path d="M5 38 L48 5 L75 25 L75 12 L82 12 L82 30 L92 38" />
  </g>
  <g transform="translate(160 14)" fill="#3d2b1f">
    <!-- Window (4 panes) -->
    <rect x="38" y="20" width="20" height="20" rx="1"/>
  </g>
  <g transform="translate(160 14)" fill="#fdf6ea">
    <line x1="38" y1="30" x2="58" y2="30" stroke="#fdf6ea" stroke-width="1.5"/>
    <line x1="48" y1="20" x2="48" y2="40" stroke="#fdf6ea" stroke-width="1.5"/>
  </g>
  <g transform="translate(160 14)" stroke="#fdf6ea" stroke-width="1.8">
    <line x1="38" y1="30" x2="58" y2="30"/>
    <line x1="48" y1="20" x2="48" y2="40"/>
  </g>

  <!-- ── WORDMARK ── -->
  <text x="160" y="98" font-family="Georgia, 'Times New Roman', serif" font-weight="700" font-size="40" fill="#3d2b1f" letter-spacing="-0.5">Medicare</text>
  <text x="160" y="135" font-family="Georgia, 'Times New Roman', serif" font-weight="500" font-size="36" fill="#3d2b1f" letter-spacing="-0.3">Price Guide</text>

  <!-- ── TAGLINE ── -->
  <text x="395" y="135" font-family="Georgia, 'Times New Roman', serif" font-style="italic" font-weight="400" font-size="14" fill="#7a6a5a">Made for sons that care</text>
</svg>
